<?xml version="1.0" encoding="UTF-8" standalone="no"?>
<!-- Created with Inkscape (http://www.inkscape.org/) -->

<svg
   version="1.1"
   id="svg1"
   width="320"
   height="320"
   viewBox="0 0 320 320"
   sodipodi:docname="logo1.svg"
   inkscape:version="1.3.2 (091e20e, 2023-11-25, custom)"
   xmlns:inkscape="http://www.inkscape.org/namespaces/inkscape"
   xmlns:sodipodi="http://sodipodi.sourceforge.net/DTD/sodipodi-0.dtd"
   xmlns="http://www.w3.org/2000/svg"
   xmlns:svg="http://www.w3.org/2000/svg">
  <defs
     id="defs1" />
  <sodipodi:namedview
     id="namedview1"
     pagecolor="#ffffff"
     bordercolor="#000000"
     borderopacity="0.25"
     inkscape:showpageshadow="2"
     inkscape:pageopacity="0.0"
     inkscape:pagecheckerboard="0"
     inkscape:deskcolor="#d1d1d1"
     inkscape:zoom="2.428125"
     inkscape:cx="159.79408"
     inkscape:cy="160"
     inkscape:window-width="1920"
     inkscape:window-height="991"
     inkscape:window-x="-9"
     inkscape:window-y="-9"
     inkscape:window-maximized="1"
     inkscape:current-layer="g1" />
  <g
     inkscape:groupmode="layer"
     inkscape:label="Image"
     id="g1">
    <ellipse
       style="fill:#00ffff;stroke-width:1.15754"
       id="path11"
       cx="157.11711"
       cy="163.91249"
       rx="137.34879"
       ry="144.14415" />
    <ellipse
       style="fill:#241c1c"
       id="path1"
       cx="157.32304"
       cy="155.26384"
       rx="62.599743"
       ry="100.48906" />
    <ellipse
       style="fill:#ffd42a"
       id="path2"
       cx="128.08237"
       cy="258.01801"
       rx="25.534105"
       ry="17.915058" />
    <ellipse
       style="fill:#ffd42a"
       id="path3"
       cx="187.59331"
       cy="259.25354"
       rx="25.740026"
       ry="17.091377" />
    <rect
       style="fill:#ffffff"
       id="rect3"
       width="0.82368082"
       height="100.48906"
       x="117.78635"
       y="132.20078" />
    <rect
       style="fill:#ffffff"
       id="rect4"
       width="0.82368082"
       height="100.48906"
       x="195.21234"
       y="133.43629" />
    <ellipse
       style="fill:#ffffff"
       id="path4"
       cx="156.91119"
       cy="183.88675"
       rx="33.770912"
       ry="52.921494" />
    <path
       style="fill:#241c1c"
       d="m 153.61647,54.774775 c -0.15654,-2.828014 0.59174,-5.79104 2.05921,-8.236808 0.49943,-0.832384 1.43776,-1.313477 2.0592,-2.059203 0.7563,-0.907559 1.40243,-2.241714 2.47104,-2.882882 1.96956,-1.181737 4.46759,-1.351916 6.58945,-2.059202 4.09842,-1.36614 7.55411,-3.706564 11.94337,-3.706564"
       id="path7" />
    <path
       style="fill:#241c1c"
       d="m 154.44015,55.598456 c -1.27752,-1.170272 -2.62166,-2.701745 -2.88288,-4.530245 -0.0777,-0.543602 0.13318,-1.114636 0,-1.647362 -0.1489,-0.595604 -0.59567,-1.077336 -0.82368,-1.647361 -0.32245,-0.806137 -0.48167,-1.673008 -0.82368,-2.471043 -0.32003,-0.746743 -1.46396,-1.250535 -2.0592,-1.647361 -0.25541,-0.170275 -0.15643,-0.653406 -0.41184,-0.823681 -0.29155,-1.255726 -1.1411,-0.158709 -1.64736,-0.411841 -0.3473,-0.173647 -0.45532,-0.700893 -0.82369,-0.82368 -1.44028,-0.480096 -4.47877,0 -6.1776,0"
       id="path8" />
    <path
       style="fill:#ffd42a"
       d="m 146.61518,94.723295 c 6.34942,0.207221 11.52578,-0.41184 17.70914,-0.41184 0.68909,0 3.29715,-0.409416 3.70656,0 0.0865,0.08652 -2.32791,6.303185 -2.88288,7.413125 -2.47277,4.94554 0.65101,-1.771414 -1.64736,2.0592 -0.43913,0.73189 -0.61582,2.26318 -1.23552,2.88289 -0.0971,0.0971 -0.31477,-0.0971 -0.41184,0 -0.19038,0.19037 0.12433,0.98686 0,1.23552 -0.39275,0.78549 -0.0191,0.45002 -0.41184,1.23552 -0.0614,0.12278 -0.35045,-0.12279 -0.41184,0 -0.36836,0.32488 0.18418,0.86716 0,1.23552 -0.46211,0.92421 -1.23552,1.77403 -1.23552,2.88288 0,0.4987 -0.0364,3.29472 -0.82369,3.29472 -0.19125,0 -1.20052,-5.0955 -1.64736,-5.76576 -0.45755,-0.68633 -0.89181,-1.37179 -1.23552,-2.0592 -0.0614,-0.12279 0.12279,-0.35045 0,-0.41184 -0.24557,-0.12279 -0.56321,0.0868 -0.82368,0 -0.81954,-0.27318 -0.19219,-0.38439 -0.41184,-0.82368 -0.85699,-1.71399 0.0284,0.44027 -0.82368,-0.41184 -0.85211,-0.85212 1.30214,0.0333 -0.41184,-0.82369 -0.12279,-0.0614 -0.31477,0.0971 -0.41184,0 -0.21757,-0.21756 -1.01796,-1.84163 -1.23552,-2.0592 -0.23565,-0.23565 -1.04082,-0.23958 -1.23552,-0.82368 -0.23574,-0.70719 0.36083,-0.84918 -0.41184,-1.23552 -0.12279,-0.0614 -0.31477,0.0971 -0.41184,0 -0.20634,-0.20633 -0.14185,-1.37737 -0.41184,-1.64736 -0.20593,-0.20592 -0.61777,-0.20592 -0.82369,-0.41184 -0.89936,-0.899365 -0.0856,-0.668666 -0.41184,-1.647361 -0.12278,-0.368361 -0.65003,-0.476387 -0.82368,-0.823681 -0.42386,-0.847723 -0.5593,-1.825383 -0.82368,-2.882883 z"
       id="path9" />
    <ellipse
       style="fill:#ffffff"
       id="path10"
       cx="142.29086"
       cy="77.01416"
       rx="1.8532819"
       ry="1.6473616" />
    <ellipse
       style="fill:#ffffff"
       id="ellipse10"
       cx="170.29601"
       cy="77.01416"
       rx="1.8532819"
       ry="1.6473616" />
  </g>
</svg>
